<?xml version="1.0" encoding="UTF-8"?>
<svg version="1.1" viewBox="0 0 1141.8 1403.2" xml:space="preserve" xmlns="http://www.w3.org/2000/svg" xmlns:cc="http://creativecommons.org/ns#" xmlns:dc="http://purl.org/dc/elements/1.1/" xmlns:rdf="http://www.w3.org/1999/02/22-rdf-syntax-ns#"><metadata><rdf:RDF><cc:Work rdf:about=""><dc:format>image/svg+xml</dc:format><dc:type rdf:resource="http://purl.org/dc/dcmitype/StillImage"/><dc:title/></cc:Work></rdf:RDF></metadata>
<style type="text/css">
	.st0{fill:#F2F2F2;}
	.st1{fill:#FFFFFF;}
	.st2{fill:#FC4349;}
	.st3{fill:none;stroke:#FFFFFF;stroke-width:4.6002;stroke-miterlimit:10;}
	.st4{fill:none;stroke:#F2F2F2;stroke-width:18.4008;stroke-linecap:round;stroke-miterlimit:10;}
</style>
<path class="st0" d="m584.9 227.25c-6.5053 0-11.824-5.2746-11.824-11.824v-11.824h23.648v11.824c0 6.5493-5.2746 11.824-11.824 11.824z" fill="#878787" stroke="#553a3a" stroke-width="1.84"/><path class="st1" d="m584.9 18.293c-8.7031 0-15.78 7.0768-15.78 15.78 0 8.7031 7.0768 15.78 15.78 15.78 8.7031 0 15.78-7.0768 15.78-15.78 0-8.7031-7.0328-15.78-15.78-15.78zm0 23.648c-4.3516 0-7.8679-3.5164-7.8679-7.8679s3.5164-7.8679 7.8679-7.8679c4.3515 0 7.8679 3.5164 7.8679 7.8679s-3.5164 7.8679-7.8679 7.8679z" fill="#878787" stroke-width=".43955"/><path class="st1" d="m630.88 210.16h-91.91c-13.23 0-25.649-10.834-23.955-23.955 5.3279-41.271 9.1275-82.959 0-128.17-2.6181-12.969 10.725-23.955 23.955-23.955h91.91c13.23 0 27.354 11.169 23.955 23.955-11.825 44.493-4.8744 86.919 0 128.17 1.5525 13.139-10.725 23.955-23.955 23.955z" fill="#fff" stroke="#878787" stroke-width="5.84"/><path class="st2" d="m527.89 130.62v53.273c0 10.242 8.3075 18.549 18.549 18.549h76.965c10.242 0 18.549-8.3075 18.549-18.549v-53.273z" fill="#f72e35" stroke-width=".43955"/><line class="st3" x1="536.37" x2="558.44" y1="144.51" y2="144.51" fill="none" stroke="#fff" stroke-miterlimit="10" stroke-width="2.022"/><line class="st3" x1="536.37" x2="558.44" y1="155.45" y2="155.45" fill="none" stroke="#fff" stroke-miterlimit="10" stroke-width="2.022"/><line class="st3" x1="536.37" x2="558.44" y1="166.4" y2="166.4" fill="none" stroke="#fff" stroke-miterlimit="10" stroke-width="2.022"/><line class="st3" x1="536.37" x2="558.44" y1="177.34" y2="177.34" fill="none" stroke="#fff" stroke-miterlimit="10" stroke-width="2.022"/><line class="st3" x1="536.37" x2="558.44" y1="188.29" y2="188.29" fill="none" stroke="#fff" stroke-miterlimit="10" stroke-width="2.022"/><g transform="translate(4)" fill="#f72e35" stroke="#fff" stroke-width="1.2543"><path d="m233.13 483.25c-3.3753 10.159-3.1461 21.067-5.1259 31.503 0.0494 8.4179-0.76266 16.759-2.9798 24.894-2.3188 9.397-1.1714 19.26-2.2093 28.688-2.8777 5.3147-6.6554 17.902-14.384 9.8526-3.1788-2.7212-1.0934-5.6832 0.40654-8.5668 4.5408-7.2876 5.4772-16.077 2.7804-24.209-1.6769-10.631-1.9195-21.666 0.51011-32.188 0.92697-8.4666-0.87228-16.883-3.1585-24.947-6.1787-7.1691-4.8885-17.34-7.1763-25.992-1.4713-8.1082-3.9501-16.37-1.5972-24.573 1.97-11.126 1.4807-22.742 5.0839-33.529 3.7949-7.2892 14.475-6.0408 18.854-13.337 4.0245-7.1524-6.9767-14.092-3.3224-21.644 2.2775-4.9253 6.4726-10.614 12.318-10.998m-19.029 75.023c-3.2609 9.7446-2.7807 20.332-3.0609 30.491 1.5232 5.6944 2.0991-7.4161 2.4794-9.3088 0.39114-6.979 1.9878-14.275 0.58148-21.182zm19.029 50.024c3.3753 10.159 3.1461 21.067 5.1259 31.503-0.0494 8.418 0.76264 16.759 2.9798 24.894 2.3188 9.397 1.1713 19.26 2.2092 28.688 2.8777 5.3147 6.6554 17.902 14.384 9.8526 3.1788-2.7212 1.0934-5.6832-0.40655-8.5668-4.5408-7.2875-5.4772-16.077-2.7804-24.209 1.6769-10.631 1.9195-21.666-0.51013-32.188-0.92695-8.4666 0.87229-16.883 3.1586-24.947 6.1787-7.1691 4.8885-17.34 7.1763-25.992 1.4713-8.1082 3.9501-16.37 1.5972-24.573-1.97-11.126-1.4807-22.742-5.0839-33.529-3.7949-7.2892-14.475-6.0408-18.854-13.337-4.0244-7.1524 6.9767-14.092 3.3224-21.644-2.2775-4.9253-6.4726-10.614-12.318-10.998m19.029 75.023c3.2609 9.7446 2.7807 20.332 3.0609 30.491-1.5232 5.6944-2.0991-7.4161-2.4794-9.3088-0.39114-6.979-1.9879-14.275-0.58148-21.182z"/><path d="m233.13 748.57c-3.3753 10.159-3.1461 21.067-5.1259 31.503 0.0494 8.4179-0.76266 16.759-2.9798 24.894-2.3188 9.397-1.1714 19.26-2.2093 28.688-2.8777 5.3147-6.6554 17.902-14.384 9.8526-3.1788-2.7212-1.0934-5.6832 0.40654-8.5668 4.5408-7.2876 5.4772-16.077 2.7804-24.209-1.6769-10.631-1.9195-21.666 0.51011-32.188 0.92697-8.4666-0.87228-16.883-3.1585-24.947-6.1787-7.1691-4.8885-17.34-7.1763-25.992-1.4713-8.1082-3.9501-16.37-1.5972-24.573 1.97-11.126 1.4807-22.742 5.0839-33.529 3.7949-7.2892 14.475-6.0408 18.854-13.337 4.0245-7.1524-6.9767-14.092-3.3224-21.644 2.2775-4.9253 6.4726-10.614 12.318-10.998m-19.029 75.023c-3.2609 9.7446-2.7807 20.332-3.0609 30.491 1.5232 5.6944 2.0991-7.4161 2.4794-9.3088 0.39114-6.979 1.9878-14.275 0.58148-21.182zm19.029 50.024c3.3753 10.159 3.1461 21.067 5.1259 31.503-0.0494 8.4179 0.76264 16.759 2.9798 24.894 2.3188 9.397 1.1713 19.26 2.2092 28.688 2.8777 5.3147 6.6554 17.902 14.384 9.8526 3.1788-2.7212 1.0934-5.6832-0.40655-8.5668-4.5408-7.2875-5.4772-16.077-2.7804-24.209 1.6769-10.631 1.9195-21.666-0.51013-32.188-0.92695-8.4666 0.87229-16.883 3.1586-24.947 6.1787-7.1691 4.8885-17.34 7.1763-25.992 1.4713-8.1082 3.9501-16.37 1.5972-24.573-1.97-11.126-1.4807-22.742-5.0839-33.529-3.7949-7.2892-14.475-6.0408-18.854-13.337-4.0244-7.1524 6.9767-14.092 3.3224-21.644-2.2775-4.9253-6.4726-10.614-12.318-10.998m19.029 75.023c3.2609 9.7446 2.7807 20.332 3.0609 30.491-1.5232 5.6944-2.0991-7.4161-2.4794-9.3088-0.39114-6.979-1.9879-14.275-0.58148-21.182z"/><path d="m233.13 1e3c-3.3753 10.159-3.1461 21.067-5.1259 31.503 0.0494 8.418-0.76266 16.759-2.9798 24.894-2.3188 9.3969-1.1714 19.26-2.2093 28.688-2.8777 5.3147-6.6554 17.902-14.384 9.8526-3.1788-2.7212-1.0934-5.6831 0.40654-8.5668 4.5408-7.2875 5.4772-16.076 2.7804-24.208-1.6769-10.631-1.9195-21.666 0.51011-32.188 0.92697-8.4665-0.87228-16.883-3.1585-24.947-6.1787-7.169-4.8885-17.34-7.1763-25.992-1.4713-8.1082-3.9501-16.37-1.5972-24.573 1.97-11.126 1.4807-22.742 5.0839-33.529 3.7949-7.2892 14.475-6.0408 18.854-13.337 4.0245-7.1524-6.9767-14.092-3.3224-21.644 2.2775-4.9253 6.4726-10.614 12.318-10.998m-19.029 75.023c-3.2609 9.7446-2.7807 20.332-3.0609 30.491 1.5232 5.6944 2.0991-7.4161 2.4794-9.3088 0.39114-6.979 1.9878-14.275 0.58148-21.182zm19.029 50.024c3.3753 10.159 3.1461 21.067 5.1259 31.503-0.0494 8.418 0.76264 16.758 2.9798 24.894 2.3188 9.3969 1.1713 19.26 2.2092 28.688 2.8777 5.3147 6.6554 17.902 14.384 9.8526 3.1788-2.7212 1.0934-5.6831-0.40655-8.5668-4.5408-7.2875-5.4772-16.076-2.7804-24.208 1.6769-10.631 1.9195-21.666-0.51013-32.188-0.92695-8.4665 0.87229-16.883 3.1586-24.947 6.1787-7.1691 4.8885-17.34 7.1763-25.992 1.4713-8.1082 3.9501-16.37 1.5972-24.573-1.97-11.126-1.4807-22.742-5.0839-33.529-3.7949-7.2892-14.475-6.0408-18.854-13.337-4.0244-7.1524 6.9767-14.092 3.3224-21.644-2.2775-4.9253-6.4726-10.614-12.318-10.998m19.029 75.023c3.2609 9.7446 2.7807 20.332 3.0609 30.491-1.5232 5.6944-2.0991-7.4161-2.4794-9.3088-0.39114-6.979-1.9879-14.275-0.58148-21.182z"/><path d="m233.13 1269.9c-3.3753 10.159-3.1461 21.067-5.1259 31.503 0.0494 8.4179-0.76266 16.758-2.9798 24.894-2.3188 9.397-1.1714 19.26-2.2093 28.688-2.8777 5.3147-6.6554 17.902-14.384 9.8527-3.1788-2.7213-1.0934-5.6832 0.40654-8.5667 4.5408-7.2877 5.4772-16.077 2.7804-24.209-1.6769-10.631-1.9195-21.666 0.51011-32.188 0.92697-8.4665-0.87228-16.883-3.1585-24.947-6.1787-7.1691-4.8885-17.34-7.1763-25.992-1.4713-8.1083-3.9501-16.37-1.5972-24.574 1.97-11.126 1.4807-22.742 5.0839-33.529 3.7949-7.2893 14.475-6.0408 18.854-13.337 4.0245-7.1524-6.9767-14.092-3.3224-21.644 2.2775-4.9253 6.4726-10.614 12.318-10.998m-19.029 75.023c-3.2609 9.7446-2.7807 20.332-3.0609 30.491 1.5232 5.6943 2.0991-7.4161 2.4794-9.3089 0.39114-6.979 1.9878-14.275 0.58148-21.182zm19.029 50.024c3.3753 10.159 3.1461 21.067 5.1259 31.503-0.0494 8.4179 0.76264 16.758 2.9798 24.894 2.3188 9.397 1.1713 19.26 2.2092 28.688 2.8777 5.3147 6.6554 17.902 14.384 9.8526 3.1788-2.7212 1.0934-5.6831-0.40655-8.5667-4.5408-7.2876-5.4772-16.077-2.7804-24.209 1.6769-10.631 1.9195-21.666-0.51013-32.188-0.92695-8.4666 0.87229-16.883 3.1586-24.947 6.1787-7.1691 4.8885-17.34 7.1763-25.992 1.4713-8.1082 3.9501-16.37 1.5972-24.573-1.97-11.126-1.4807-22.742-5.0839-33.529-3.7949-7.2893-14.475-6.0408-18.854-13.337-4.0244-7.1524 6.9767-14.092 3.3224-21.644-2.2775-4.9253-6.4726-10.614-12.318-10.998m19.029 75.023c3.2609 9.7446 2.7807 20.332 3.0609 30.491-1.5232 5.6943-2.0991-7.4161-2.4794-9.3089-0.39114-6.979-1.9879-14.275-0.58148-21.182z"/></g><path d="m934.7 483.25c-3.3753 10.159-3.1461 21.067-5.1259 31.503 0.0494 8.418-0.76266 16.759-2.9798 24.894-2.3188 9.397-1.1714 19.26-2.2093 28.688-2.8777 5.3147-6.6554 17.902-14.384 9.8526-3.1788-2.7212-1.0934-5.6831 0.40654-8.5668 4.5408-7.2876 5.4772-16.077 2.7804-24.209-1.6769-10.631-1.9195-21.666 0.51011-32.188 0.92697-8.4666-0.87228-16.883-3.1585-24.947-6.1787-7.1691-4.8885-17.34-7.1763-25.992-1.4713-8.1082-3.9501-16.37-1.5972-24.573 1.97-11.126 1.4807-22.742 5.0839-33.529 3.7949-7.2892 14.475-6.0408 18.854-13.337 4.0245-7.1524-6.9767-14.092-3.3224-21.644 2.2775-4.9253 6.4726-10.614 12.318-10.998m-19.029 75.023c-3.2609 9.7446-2.7807 20.332-3.0609 30.491 1.5232 5.6944 2.0991-7.4161 2.4794-9.3088 0.39114-6.979 1.9878-14.275 0.58148-21.182zm19.029 50.024c3.3753 10.159 3.1461 21.067 5.1259 31.503-0.0494 8.418 0.76264 16.759 2.9798 24.894 2.3188 9.397 1.1713 19.26 2.2092 28.688 2.8777 5.3147 6.6554 17.902 14.384 9.8526 3.1788-2.7212 1.0934-5.6832-0.40655-8.5668-4.5408-7.2875-5.4772-16.077-2.7804-24.209 1.6769-10.631 1.9195-21.666-0.51013-32.188-0.92695-8.4666 0.87229-16.883 3.1586-24.947 6.1787-7.1691 4.8885-17.34 7.1763-25.992 1.4713-8.1082 3.9501-16.37 1.5972-24.573-1.97-11.126-1.4807-22.742-5.0839-33.529-3.7949-7.2892-14.475-6.0408-18.854-13.337-4.0244-7.1524 6.9767-14.092 3.3224-21.644-2.2775-4.9253-6.4726-10.614-12.318-10.998m19.029 75.023c3.2609 9.7446 2.7807 20.332 3.0609 30.491-1.5232 5.6944-2.0991-7.4161-2.4794-9.3088-0.39114-6.979-1.9879-14.275-0.58148-21.182z" fill="#f72e35" stroke="#fff" stroke-width="1.2543"/><path d="m934.7 748.57c-3.3753 10.159-3.1461 21.067-5.1259 31.503 0.0494 8.418-0.76266 16.759-2.9798 24.894-2.3188 9.397-1.1714 19.26-2.2093 28.688-2.8777 5.3147-6.6554 17.902-14.384 9.8526-3.1788-2.7212-1.0934-5.6831 0.40654-8.5668 4.5408-7.2876 5.4772-16.077 2.7804-24.209-1.6769-10.631-1.9195-21.666 0.51011-32.188 0.92697-8.4666-0.87228-16.883-3.1585-24.947-6.1787-7.1691-4.8885-17.34-7.1763-25.992-1.4713-8.1082-3.9501-16.37-1.5972-24.573 1.97-11.126 1.4807-22.742 5.0839-33.529 3.7949-7.2892 14.475-6.0408 18.854-13.337 4.0245-7.1524-6.9767-14.092-3.3224-21.644 2.2775-4.9253 6.4726-10.614 12.318-10.998m-19.029 75.023c-3.2609 9.7446-2.7807 20.332-3.0609 30.491 1.5232 5.6944 2.0991-7.4161 2.4794-9.3088 0.39114-6.979 1.9878-14.275 0.58148-21.182zm19.029 50.024c3.3753 10.159 3.1461 21.067 5.1259 31.503-0.0494 8.418 0.76264 16.759 2.9798 24.894 2.3188 9.397 1.1713 19.26 2.2092 28.688 2.8777 5.3147 6.6554 17.902 14.384 9.8526 3.1788-2.7212 1.0934-5.6832-0.40655-8.5668-4.5408-7.2875-5.4772-16.077-2.7804-24.209 1.6769-10.631 1.9195-21.666-0.51013-32.188-0.92695-8.4666 0.87229-16.883 3.1586-24.947 6.1787-7.1691 4.8885-17.34 7.1763-25.992 1.4713-8.1082 3.9501-16.37 1.5972-24.573-1.97-11.126-1.4807-22.742-5.0839-33.529-3.7949-7.2892-14.475-6.0408-18.854-13.337-4.0244-7.1524 6.9767-14.092 3.3224-21.644-2.2775-4.9253-6.4726-10.614-12.318-10.998m19.029 75.023c3.2609 9.7446 2.7807 20.332 3.0609 30.491-1.5232 5.6944-2.0991-7.4161-2.4794-9.3088-0.39114-6.979-1.9879-14.275-0.58148-21.182z" fill="#f72e35" stroke="#fff" stroke-width="1.2543"/><path d="m934.7 1e3c-3.3753 10.159-3.1461 21.067-5.1259 31.503 0.0494 8.418-0.76266 16.759-2.9798 24.894-2.3188 9.3969-1.1714 19.26-2.2093 28.688-2.8777 5.3147-6.6554 17.902-14.384 9.8526-3.1788-2.7212-1.0934-5.6831 0.40654-8.5668 4.5408-7.2875 5.4772-16.076 2.7804-24.208-1.6769-10.631-1.9195-21.666 0.51011-32.188 0.92697-8.4665-0.87228-16.883-3.1585-24.947-6.1787-7.169-4.8885-17.34-7.1763-25.992-1.4713-8.1082-3.9501-16.37-1.5972-24.573 1.97-11.126 1.4807-22.742 5.0839-33.529 3.7949-7.2892 14.475-6.0408 18.854-13.337 4.0245-7.1524-6.9767-14.092-3.3224-21.644 2.2775-4.9253 6.4726-10.614 12.318-10.998m-19.029 75.023c-3.2609 9.7446-2.7807 20.332-3.0609 30.491 1.5232 5.6944 2.0991-7.4161 2.4794-9.3088 0.39114-6.979 1.9878-14.275 0.58148-21.182zm19.029 50.024c3.3753 10.159 3.1461 21.067 5.1259 31.503-0.0494 8.418 0.76264 16.758 2.9798 24.894 2.3188 9.3969 1.1713 19.26 2.2092 28.688 2.8777 5.3147 6.6554 17.902 14.384 9.8526 3.1788-2.7212 1.0934-5.6831-0.40655-8.5668-4.5408-7.2875-5.4772-16.076-2.7804-24.208 1.6769-10.631 1.9195-21.666-0.51013-32.188-0.92695-8.4665 0.87229-16.883 3.1586-24.947 6.1787-7.169 4.8885-17.34 7.1763-25.992 1.4713-8.1082 3.9501-16.37 1.5972-24.573-1.97-11.126-1.4807-22.742-5.0839-33.529-3.7949-7.2892-14.475-6.0408-18.854-13.337-4.0244-7.1524 6.9767-14.092 3.3224-21.644-2.2775-4.9253-6.4726-10.614-12.318-10.998m19.029 75.023c3.2609 9.7446 2.7807 20.332 3.0609 30.491-1.5232 5.6944-2.0991-7.4161-2.4794-9.3088-0.39114-6.979-1.9879-14.275-0.58148-21.182z" fill="#f72e35" stroke="#fff" stroke-width="1.2543"/><path d="m934.7 1269.9c-3.3753 10.158-3.1461 21.067-5.1259 31.503 0.0494 8.4179-0.76266 16.758-2.9798 24.894-2.3188 9.397-1.1714 19.26-2.2093 28.688-2.8777 5.3147-6.6554 17.902-14.384 9.8527-3.1788-2.7213-1.0934-5.6832 0.40654-8.5667 4.5408-7.2878 5.4772-16.077 2.7804-24.209-1.6769-10.631-1.9195-21.666 0.51011-32.188 0.92697-8.4665-0.87228-16.883-3.1585-24.947-6.1787-7.1691-4.8885-17.34-7.1763-25.992-1.4713-8.1084-3.9501-16.37-1.5972-24.574 1.97-11.126 1.4807-22.742 5.0839-33.529 3.7949-7.2893 14.475-6.0408 18.854-13.337 4.0245-7.1524-6.9767-14.092-3.3224-21.644 2.2775-4.9253 6.4726-10.614 12.318-10.998m-19.029 75.023c-3.2609 9.7446-2.7807 20.332-3.0609 30.491 1.5232 5.6943 2.0991-7.4161 2.4794-9.3089 0.39114-6.979 1.9878-14.275 0.58148-21.182zm19.029 50.024c3.3753 10.158 3.1461 21.067 5.1259 31.503-0.0494 8.4179 0.76264 16.758 2.9798 24.894 2.3188 9.397 1.1713 19.26 2.2092 28.688 2.8777 5.3147 6.6554 17.902 14.384 9.8526 3.1788-2.7212 1.0934-5.6831-0.40655-8.5668-4.5408-7.2875-5.4772-16.076-2.7804-24.208 1.6769-10.631 1.9195-21.666-0.51013-32.188-0.92695-8.4666 0.87229-16.883 3.1586-24.947 6.1787-7.1691 4.8885-17.34 7.1763-25.992 1.4713-8.1082 3.9501-16.37 1.5972-24.573-1.97-11.126-1.4807-22.742-5.0839-33.529-3.7949-7.2893-14.475-6.0408-18.854-13.337-4.0244-7.1524 6.9767-14.092 3.3224-21.644-2.2775-4.9253-6.4726-10.614-12.318-10.998m19.029 75.023c3.2609 9.7446 2.7807 20.332 3.0609 30.491-1.5232 5.6943-2.0991-7.4161-2.4794-9.3089-0.39114-6.979-1.9879-14.275-0.58148-21.182z" fill="#f72e35" stroke="#fff" stroke-width="1.2543"/><path d="m584.9 227.25c-26.458 194.22 84.49 578-322.43 245.32" fill="none" stroke="#f72e35" stroke-width="5.6"/><path d="m584.9 227.25c-26.458 194.22 84.49 838.17-322.43 505.49" fill="none" stroke="#f72e35" stroke-width="5.6"/><path d="m584.9 227.25c-26.458 194.22 84.49 1094.8-322.43 762.08" fill="none" stroke="#f72e35" stroke-width="5.6"/><path d="m584.9 227.25c-26.458 194.22 84.49 1354.4-322.43 1021.7" fill="none" stroke="#f72e35" stroke-width="5.6"/><path d="m584.9 227.25c26.458 194.22-84.49 578 322.43 245.32" fill="none" stroke="#f72e35" stroke-width="5.6"/><path d="m584.9 227.25c26.458 194.22-84.49 838.17 322.43 505.49" fill="none" stroke="#f72e35" stroke-width="5.6"/><path d="m584.9 227.25c26.458 194.22-84.49 1094.8 322.43 762.08" fill="none" stroke="#f72e35" stroke-width="5.6"/><path d="m584.9 227.25c26.458 194.22-84.49 1354.4 322.43 1021.7" fill="none" stroke="#f72e35" stroke-width="5.6"/><text x="79.406494" y="492.77441" fill="#000000" font-family="Montserrat" font-size="192px" letter-spacing="0px" word-spacing="0px" style="line-height:1.25" xml:space="preserve"><tspan x="79.406494" y="492.77441" fill="#000000" font-family="sans-serif" font-size="64px">O+</tspan></text>
<text x="84.109619" y="758.08636" fill="#000000" font-family="Montserrat" font-size="192px" letter-spacing="0px" word-spacing="0px" style="line-height:1.25" xml:space="preserve"><tspan x="84.109619" y="758.08636" fill="#000000" font-family="sans-serif" font-size="64px">A+</tspan></text>
<text x="81.328369" y="1009.5363" fill="#000000" font-family="Montserrat" font-size="192px" letter-spacing="0px" word-spacing="0px" style="line-height:1.25" xml:space="preserve"><tspan x="81.328369" y="1009.5363" fill="#000000" font-family="sans-serif" font-size="64px">B+</tspan></text>
<text x="62.172123" y="1279.4366" fill="#000000" font-family="Montserrat" font-size="192px" letter-spacing="0px" word-spacing="0px" style="line-height:1.25" xml:space="preserve"><tspan x="62.172123" y="1279.4366" fill="#000000" font-family="sans-serif" font-size="64px">AB+</tspan></text>
<text x="984.16577" y="492.77441" fill="#000000" font-family="Montserrat" font-size="192px" letter-spacing="0px" word-spacing="0px" style="line-height:1.25" xml:space="preserve"><tspan x="984.16577" y="492.77441" fill="#000000" font-family="sans-serif" font-size="64px">O-</tspan></text>
<text x="988.8689" y="758.08636" fill="#000000" font-family="Montserrat" font-size="192px" letter-spacing="0px" word-spacing="0px" style="line-height:1.25" xml:space="preserve"><tspan x="988.8689" y="758.08636" fill="#000000" font-family="sans-serif" font-size="64px">A-</tspan></text>
<text x="986.08765" y="1009.5363" fill="#000000" font-family="Montserrat" font-size="192px" letter-spacing="0px" word-spacing="0px" style="line-height:1.25" xml:space="preserve"><tspan x="986.08765" y="1009.5363" fill="#000000" font-family="sans-serif" font-size="64px">B-</tspan></text>
<text x="966.9314" y="1279.4368" fill="#000000" font-family="Montserrat" font-size="192px" letter-spacing="0px" word-spacing="0px" style="line-height:1.25" xml:space="preserve"><tspan x="966.9314" y="1279.4368" fill="#000000" font-family="sans-serif" font-size="64px">AB-</tspan></text>
<text x="545.79675" y="107.71305" fill="#000000" font-family="Montserrat" font-size="192px" letter-spacing="0px" word-spacing="0px" style="line-height:1.25" xml:space="preserve"><tspan x="545.79675" y="107.71305" fill="#000000" font-family="sans-serif" font-size="64px">O-</tspan></text>
</svg>
